<?xml version="1.0" encoding="utf-8"?><svg width="1383" height="985" xmlns="http://www.w3.org/2000/svg" xmlns:xlink="http://www.w3.org/1999/xlink" xml:space="preserve" overflow="hidden"><defs><linearGradient x1="2200" y1="749" x2="2200" y2="1239" gradientUnits="userSpaceOnUse" spreadMethod="reflect" id="fill0"><stop offset="0"/><stop offset="0.00392157" stop-color="#000000" stop-opacity="0.996078"/><stop offset="0.00784314" stop-color="#000101" stop-opacity="0.992157"/><stop offset="0.0117647" stop-color="#010102" stop-opacity="0.988235"/><stop offset="0.0156863" stop-color="#010203" stop-opacity="0.984314"/><stop offset="0.0196078" stop-color="#020304" stop-opacity="0.980392"/><stop offset="0.0235294" stop-color="#020305" stop-opacity="0.976471"/><stop offset="0.027451" stop-color="#030406" stop-opacity="0.972549"/><stop offset="0.0313726" stop-color="#030407" stop-opacity="0.968627"/><stop offset="0.0352941" stop-color="#030508" stop-opacity="0.964706"/><stop offset="0.0392157" stop-color="#040609" stop-opacity="0.960784"/><stop offset="0.0431373" stop-color="#04060A" stop-opacity="0.956863"/><stop offset="0.0470588" stop-color="#05070B" stop-opacity="0.952941"/><stop offset="0.0509804" stop-color="#05080C" stop-opacity="0.94902"/><stop offset="0.054902" stop-color="#06080D" stop-opacity="0.945098"/><stop offset="0.0588235" stop-color="#06090E" stop-opacity="0.941176"/><stop offset="0.0627451" stop-color="#06090F" stop-opacity="0.937255"/><stop offset="0.0666667" stop-color="#070A10" stop-opacity="0.933333"/><stop offset="0.0705882" stop-color="#070B10" stop-opacity="0.929412"/><stop offset="0.0745098" stop-color="#080B11" stop-opacity="0.92549"/><stop offset="0.0784314" stop-color="#080C12" stop-opacity="0.921569"/><stop offset="0.0823529" stop-color="#080C13" stop-opacity="0.917647"/><stop offset="0.0862745" stop-color="#090D14" stop-opacity="0.913725"/><stop offset="0.0901961" stop-color="#090D15" stop-opacity="0.909804"/><stop offset="0.0941176" stop-color="#0A0E16" stop-opacity="0.905882"/><stop offset="0.0980392" stop-color="#0A0F17" stop-opacity="0.901961"/><stop offset="0.101961" stop-color="#0A0F18" stop-opacity="0.898039"/><stop offset="0.105882" stop-color="#0B1018" stop-opacity="0.894118"/><stop offset="0.109804" stop-color="#0B1019" stop-opacity="0.890196"/><stop offset="0.113725" stop-color="#0C111A" stop-opacity="0.886275"/><stop offset="0.117647" stop-color="#0C111B" stop-opacity="0.882353"/><stop offset="0.121569" stop-color="#0C121C" stop-opacity="0.878431"/><stop offset="0.12549" stop-color="#0D131D" stop-opacity="0.87451"/><stop offset="0.129412" stop-color="#0D131E" stop-opacity="0.870588"/><stop offset="0.133333" stop-color="#0E141F" stop-opacity="0.866667"/><stop offset="0.137255" stop-color="#0E141F" stop-opacity="0.862745"/><stop offset="0.141176" stop-color="#0E1520" stop-opacity="0.858824"/><stop offset="0.145098" stop-color="#0F1521" stop-opacity="0.854902"/><stop offset="0.14902" stop-color="#0F1622" stop-opacity="0.85098"/><stop offset="0.152941" stop-color="#101723" stop-opacity="0.847059"/><stop offset="0.156863" stop-color="#101724" stop-opacity="0.843137"/><stop offset="0.160784" stop-color="#101824" stop-opacity="0.839216"/><stop offset="0.164706" stop-color="#111825" stop-opacity="0.835294"/><stop offset="0.168627" stop-color="#111926" stop-opacity="0.831373"/><stop offset="0.172549" stop-color="#111927" stop-opacity="0.827451"/><stop offset="0.176471" stop-color="#121A28" stop-opacity="0.823529"/><stop offset="0.180392" stop-color="#121A29" stop-opacity="0.819608"/><stop offset="0.184314" stop-color="#131B29" stop-opacity="0.815686"/><stop offset="0.188235" stop-color="#131B2A" stop-opacity="0.811765"/><stop offset="0.192157" stop-color="#131C2B" stop-opacity="0.807843"/><stop offset="0.196078" stop-color="#141C2C" stop-opacity="0.803922"/><stop offset="0.2" stop-color="#141D2D" stop-opacity="0.8"/><stop offset="0.203922" stop-color="#141D2D" stop-opacity="0.796078"/><stop offset="0.207843" stop-color="#151E2E" stop-opacity="0.792157"/><stop offset="0.211765" stop-color="#151E2F" stop-opacity="0.788235"/><stop offset="0.215686" stop-color="#151F30" stop-opacity="0.784314"/><stop offset="0.219608" stop-color="#161F31" stop-opacity="0.780392"/><stop offset="0.223529" stop-color="#162031" stop-opacity="0.776471"/><stop offset="0.227451" stop-color="#172032" stop-opacity="0.772549"/><stop offset="0.231373" stop-color="#172133" stop-opacity="0.768627"/><stop offset="0.235294" stop-color="#172134" stop-opacity="0.764706"/><stop offset="0.239216" stop-color="#182234" stop-opacity="0.760784"/><stop offset="0.243137" stop-color="#182235" stop-opacity="0.756863"/><stop offset="0.247059" stop-color="#182336" stop-opacity="0.752941"/><stop offset="0.25098" stop-color="#192337" stop-opacity="0.74902"/><stop offset="0.254902" stop-color="#192437" stop-opacity="0.745098"/><stop offset="0.258824" stop-color="#192438" stop-opacity="0.741176"/><stop offset="0.262745" stop-color="#1A2539" stop-opacity="0.737255"/><stop offset="0.266667" stop-color="#1A253A" stop-opacity="0.733333"/><stop offset="0.270588" stop-color="#1A263A" stop-opacity="0.729412"/><stop offset="0.27451" stop-color="#1B263B" stop-opacity="0.72549"/><stop offset="0.278431" stop-color="#1B273C" stop-opacity="0.721569"/><stop offset="0.282353" stop-color="#1B273D" stop-opacity="0.717647"/><stop offset="0.286275" stop-color="#1C283D" stop-opacity="0.713725"/><stop offset="0.290196" stop-color="#1C283E" stop-opacity="0.709804"/><stop offset="0.294118" stop-color="#1C293F" stop-opacity="0.705882"/><stop offset="0.298039" stop-color="#1D2940" stop-opacity="0.701961"/><stop offset="0.301961" stop-color="#1D2A40" stop-opacity="0.698039"/><stop offset="0.305882" stop-color="#1D2A41" stop-opacity="0.694118"/><stop offset="0.309804" stop-color="#1E2B42" stop-opacity="0.690196"/><stop offset="0.313726" stop-color="#1E2B42" stop-opacity="0.686275"/><stop offset="0.317647" stop-color="#1E2B43" stop-opacity="0.682353"/><stop offset="0.321569" stop-color="#1F2C44" stop-opacity="0.678431"/><stop offset="0.32549" stop-color="#1F2C44" stop-opacity="0.67451"/><stop offset="0.329412" stop-color="#1F2D45" stop-opacity="0.670588"/><stop offset="0.333333" stop-color="#1F2D46" stop-opacity="0.666667"/><stop offset="0.337255" stop-color="#202E46" stop-opacity="0.662745"/><stop offset="0.341176" stop-color="#202E47" stop-opacity="0.658823"/><stop offset="0.345098" stop-color="#202F48" stop-opacity="0.654902"/><stop offset="0.34902" stop-color="#212F48" stop-opacity="0.65098"/><stop offset="0.352941" stop-color="#212F49" stop-opacity="0.647059"/><stop offset="0.356863" stop-color="#21304A" stop-opacity="0.643137"/><stop offset="0.360784" stop-color="#22304A" stop-opacity="0.639216"/><stop offset="0.364706" stop-color="#22314B" stop-opacity="0.635294"/><stop offset="0.368627" stop-color="#22314C" stop-opacity="0.631373"/><stop offset="0.372549" stop-color="#22324C" stop-opacity="0.627451"/><stop offset="0.376471" stop-color="#23324D" stop-opacity="0.623529"/><stop offset="0.380392" stop-color="#23324E" stop-opacity="0.619608"/><stop offset="0.384314" stop-color="#23334E" stop-opacity="0.615686"/><stop offset="0.388235" stop-color="#24334F" stop-opacity="0.611765"/><stop offset="0.392157" stop-color="#243450" stop-opacity="0.607843"/><stop offset="0.396078" stop-color="#243450" stop-opacity="0.603922"/><stop offset="0.4" stop-color="#243451" stop-opacity="0.6"/><stop offset="0.403922" stop-color="#253551" stop-opacity="0.596078"/><stop offset="0.407843" stop-color="#253552" stop-opacity="0.592157"/><stop offset="0.411765" stop-color="#253653" stop-opacity="0.588235"/><stop offset="0.415686" stop-color="#263653" stop-opacity="0.584314"/><stop offset="0.419608" stop-color="#263654" stop-opacity="0.580392"/><stop offset="0.423529" stop-color="#263755" stop-opacity="0.576471"/><stop offset="0.427451" stop-color="#263755" stop-opacity="0.572549"/><stop offset="0.431373" stop-color="#273856" stop-opacity="0.568627"/><stop offset="0.435294" stop-color="#273856" stop-opacity="0.564706"/><stop offset="0.439216" stop-color="#273857" stop-opacity="0.560784"/><stop offset="0.443137" stop-color="#273957" stop-opacity="0.556863"/><stop offset="0.447059" stop-color="#283958" stop-opacity="0.552941"/><stop offset="0.45098" stop-color="#283A59" stop-opacity="0.54902"/><stop offset="0.454902" stop-color="#283A59" stop-opacity="0.545098"/><stop offset="0.458824" stop-color="#293A5A" stop-opacity="0.541176"/><stop offset="0.462745" stop-color="#293B5A" stop-opacity="0.537255"/><stop offset="0.466667" stop-color="#293B5B" stop-opacity="0.533333"/><stop offset="0.470588" stop-color="#293B5B" stop-opacity="0.529412"/><stop offset="0.47451" stop-color="#2A3C5C" stop-opacity="0.52549"/><stop offset="0.478431" stop-color="#2A3C5D" stop-opacity="0.521569"/><stop offset="0.482353" stop-color="#2A3C5D" stop-opacity="0.517647"/><stop offset="0.486275" stop-color="#2A3D5E" stop-opacity="0.513726"/><stop offset="0.490196" stop-color="#2B3D5E" stop-opacity="0.509804"/><stop offset="0.494118" stop-color="#2B3E5F" stop-opacity="0.505882"/><stop offset="0.498039" stop-color="#2B3E5F" stop-opacity="0.501961"/><stop offset="0.501961" stop-color="#2B3E60" stop-opacity="0.498039"/><stop offset="0.505882" stop-color="#2C3F60" stop-opacity="0.494118"/><stop offset="0.509804" stop-color="#2C3F61" stop-opacity="0.490196"/><stop offset="0.513726" stop-color="#2C3F61" stop-opacity="0.486274"/><stop offset="0.517647" stop-color="#2C4062" stop-opacity="0.482353"/><stop offset="0.521569" stop-color="#2C4062" stop-opacity="0.478431"/><stop offset="0.52549" stop-color="#2D4063" stop-opacity="0.47451"/><stop offset="0.529412" stop-color="#2D4163" stop-opacity="0.470588"/><stop offset="0.533333" stop-color="#2D4164" stop-opacity="0.466667"/><stop offset="0.537255" stop-color="#2D4164" stop-opacity="0.462745"/><stop offset="0.541176" stop-color="#2E4265" stop-opacity="0.458824"/><stop offset="0.545098" stop-color="#2E4265" stop-opacity="0.454902"/><stop offset="0.54902" stop-color="#2E4266" stop-opacity="0.45098"/><stop offset="0.552941" stop-color="#2E4266" stop-opacity="0.447059"/><stop offset="0.556863" stop-color="#2E4367" stop-opacity="0.443137"/><stop offset="0.560784" stop-color="#2F4367" stop-opacity="0.439216"/><stop offset="0.564706" stop-color="#2F4368" stop-opacity="0.435294"/><stop offset="0.568627" stop-color="#2F4468" stop-opacity="0.431373"/><stop offset="0.572549" stop-color="#2F4469" stop-opacity="0.427451"/><stop offset="0.576471" stop-color="#304469" stop-opacity="0.423529"/><stop offset="0.580392" stop-color="#30456A" stop-opacity="0.419608"/><stop offset="0.584314" stop-color="#30456A" stop-opacity="0.415686"/><stop offset="0.588235" stop-color="#30456A" stop-opacity="0.411765"/><stop offset="0.592157" stop-color="#30456B" stop-opacity="0.407843"/><stop offset="0.596078" stop-color="#31466B" stop-opacity="0.403922"/><stop offset="0.6" stop-color="#31466C" stop-opacity="0.4"/><stop offset="0.603922" stop-color="#31466C" stop-opacity="0.396078"/><stop offset="0.607843" stop-color="#31476D" stop-opacity="0.392157"/><stop offset="0.611765" stop-color="#31476D" stop-opacity="0.388235"/><stop offset="0.615686" stop-color="#32476E" stop-opacity="0.384314"/><stop offset="0.619608" stop-color="#32476E" stop-opacity="0.380392"/><stop offset="0.623529" stop-color="#32486E" stop-opacity="0.376471"/><stop offset="0.627451" stop-color="#32486F" stop-opacity="0.372549"/><stop offset="0.631373" stop-color="#32486F" stop-opacity="0.368627"/><stop offset="0.635294" stop-color="#324970" stop-opacity="0.364706"/><stop offset="0.639216" stop-color="#334970" stop-opacity="0.360784"/><stop offset="0.643137" stop-color="#334970" stop-opacity="0.356863"/><stop offset="0.647059" stop-color="#334971" stop-opacity="0.352941"/><stop offset="0.65098" stop-color="#334A71" stop-opacity="0.34902"/><stop offset="0.654902" stop-color="#334A72" stop-opacity="0.345098"/><stop offset="0.658824" stop-color="#344A72" stop-opacity="0.341176"/><stop offset="0.662745" stop-color="#344A72" stop-opacity="0.337255"/><stop offset="0.666667" stop-color="#344B73" stop-opacity="0.333333"/><stop offset="0.670588" stop-color="#344B73" stop-opacity="0.329412"/><stop offset="0.67451" stop-color="#344B73" stop-opacity="0.32549"/><stop offset="0.678431" stop-color="#344B74" stop-opacity="0.321569"/><stop offset="0.682353" stop-color="#354B74" stop-opacity="0.317647"/><stop offset="0.686275" stop-color="#354C74" stop-opacity="0.313725"/><stop offset="0.690196" stop-color="#354C75" stop-opacity="0.309804"/><stop offset="0.694118" stop-color="#354C75" stop-opacity="0.305882"/><stop offset="0.698039" stop-color="#354C76" stop-opacity="0.301961"/><stop offset="0.701961" stop-color="#354D76" stop-opacity="0.298039"/><stop offset="0.705882" stop-color="#354D76" stop-opacity="0.294118"/><stop offset="0.709804" stop-color="#364D77" stop-opacity="0.290196"/><stop offset="0.713726" stop-color="#364D77" stop-opacity="0.286274"/><stop offset="0.717647" stop-color="#364D77" stop-opacity="0.282353"/><stop offset="0.721569" stop-color="#364E77" stop-opacity="0.278431"/><stop offset="0.72549" stop-color="#364E78" stop-opacity="0.27451"/><stop offset="0.729412" stop-color="#364E78" stop-opacity="0.270588"/><stop offset="0.733333" stop-color="#364E78" stop-opacity="0.266667"/><stop offset="0.737255" stop-color="#374E79" stop-opacity="0.262745"/><stop offset="0.741176" stop-color="#374F79" stop-opacity="0.258824"/><stop offset="0.745098" stop-color="#374F79" stop-opacity="0.254902"/><stop offset="0.74902" stop-color="#374F7A" stop-opacity="0.25098"/><stop offset="0.752941" stop-color="#374F7A" stop-opacity="0.247059"/><stop offset="0.756863" stop-color="#374F7A" stop-opacity="0.243137"/><stop offset="0.760784" stop-color="#37507A" stop-opacity="0.239216"/><stop offset="0.764706" stop-color="#38507B" stop-opacity="0.235294"/><stop offset="0.768627" stop-color="#38507B" stop-opacity="0.231373"/><stop offset="0.772549" stop-color="#38507B" stop-opacity="0.227451"/><stop offset="0.776471" stop-color="#38507C" stop-opacity="0.223529"/><stop offset="0.780392" stop-color="#38507C" stop-opacity="0.219608"/><stop offset="0.784314" stop-color="#38517C" stop-opacity="0.215686"/><stop offset="0.788235" stop-color="#38517C" stop-opacity="0.211765"/><stop offset="0.792157" stop-color="#38517D" stop-opacity="0.207843"/><stop offset="0.796078" stop-color="#38517D" stop-opacity="0.203922"/><stop offset="0.8" stop-color="#39517D" stop-opacity="0.2"/><stop offset="0.803922" stop-color="#39517D" stop-opacity="0.196078"/><stop offset="0.807843" stop-color="#39527E" stop-opacity="0.192157"/><stop offset="0.811765" stop-color="#39527E" stop-opacity="0.188235"/><stop offset="0.815686" stop-color="#39527E" stop-opacity="0.184314"/><stop offset="0.819608" stop-color="#39527E" stop-opacity="0.180392"/><stop offset="0.823529" stop-color="#39527E" stop-opacity="0.176471"/><stop offset="0.827451" stop-color="#39527F" stop-opacity="0.172549"/><stop offset="0.831373" stop-color="#39527F" stop-opacity="0.168627"/><stop offset="0.835294" stop-color="#39537F" stop-opacity="0.164706"/><stop offset="0.839216" stop-color="#3A537F" stop-opacity="0.160784"/><stop offset="0.843137" stop-color="#3A537F" stop-opacity="0.156863"/><stop offset="0.847059" stop-color="#3A5380" stop-opacity="0.152941"/><stop offset="0.85098" stop-color="#3A5380" stop-opacity="0.14902"/><stop offset="0.854902" stop-color="#3A5380" stop-opacity="0.145098"/><stop offset="0.858824" stop-color="#3A5380" stop-opacity="0.141176"/><stop offset="0.862745" stop-color="#3A5380" stop-opacity="0.137255"/><stop offset="0.866667" stop-color="#3A5480" stop-opacity="0.133333"/><stop offset="0.870588" stop-color="#3A5481" stop-opacity="0.129412"/><stop offset="0.87451" stop-color="#3A5481" stop-opacity="0.12549"/><stop offset="0.878431" stop-color="#3A5481" stop-opacity="0.121569"/><stop offset="0.882353" stop-color="#3A5481" stop-opacity="0.117647"/><stop offset="0.886275" stop-color="#3A5481" stop-opacity="0.113725"/><stop offset="0.890196" stop-color="#3B5481" stop-opacity="0.109804"/><stop offset="0.894118" stop-color="#3B5482" stop-opacity="0.105882"/><stop offset="0.898039" stop-color="#3B5482" stop-opacity="0.101961"/><stop offset="0.901961" stop-color="#3B5482" stop-opacity="0.0980392"/><stop offset="0.905882" stop-color="#3B5482" stop-opacity="0.0941176"/><stop offset="0.909804" stop-color="#3B5582" stop-opacity="0.0901961"/><stop offset="0.913725" stop-color="#3B5582" stop-opacity="0.0862745"/><stop offset="0.917647" stop-color="#3B5582" stop-opacity="0.0823529"/><stop offset="0.921569" stop-color="#3B5582" stop-opacity="0.0784314"/><stop offset="0.92549" stop-color="#3B5582" stop-opacity="0.0745098"/><stop offset="0.929412" stop-color="#3B5583" stop-opacity="0.0705882"/><stop offset="0.933333" stop-color="#3B5583" stop-opacity="0.0666667"/><stop offset="0.937255" stop-color="#3B5583" stop-opacity="0.0627451"/><stop offset="0.941176" stop-color="#3B5583" stop-opacity="0.0588235"/><stop offset="0.945098" stop-color="#3B5583" stop-opacity="0.054902"/><stop offset="0.94902" stop-color="#3B5583" stop-opacity="0.0509804"/><stop offset="0.952941" stop-color="#3B5583" stop-opacity="0.0470588"/><stop offset="0.956863" stop-color="#3B5583" stop-opacity="0.0431373"/><stop offset="0.960784" stop-color="#3B5583" stop-opacity="0.0392157"/><stop offset="0.964706" stop-color="#3B5583" stop-opacity="0.0352941"/><stop offset="0.968627" stop-color="#3B5583" stop-opacity="0.0313725"/><stop offset="0.972549" stop-color="#3B5583" stop-opacity="0.027451"/><stop offset="0.976471" stop-color="#3B5583" stop-opacity="0.0235294"/><stop offset="0.980392" stop-color="#3B5583" stop-opacity="0.0196078"/><stop offset="0.984314" stop-color="#3B5583" stop-opacity="0.0156863"/><stop offset="0.988235" stop-color="#3B5583" stop-opacity="0.0117647"/><stop offset="0.992157" stop-color="#3B5583" stop-opacity="0.00784314"/><stop offset="0.996078" stop-color="#3B5583" stop-opacity="0.00392157"/><stop offset="1" stop-color="#3C5684" stop-opacity="0"/></linearGradient></defs><g transform="translate(-1521 -749)"><text font-family="Montserrat Light,Montserrat Light_MSFontService,sans-serif" font-weight="300" font-size="92" transform="matrix(1 0 0 1 1576.14 1655)">T</text><text font-family="Montserrat Light,Montserrat Light_MSFontService,sans-serif" font-weight="300" font-size="92" transform="matrix(1 0 0 1 1627.13 1655)"> </text><text font-family="Montserrat Light,Montserrat Light_MSFontService,sans-serif" font-weight="300" font-size="92" transform="matrix(1 0 0 1 1856.46 1655)">H</text><text font-family="Montserrat Light,Montserrat Light_MSFontService,sans-serif" font-weight="300" font-size="92" transform="matrix(1 0 0 1 1929.22 1655)"> </text><text font-family="Montserrat Light,Montserrat Light_MSFontService,sans-serif" font-weight="300" font-size="92" transform="matrix(1 0 0 1 2158.52 1655)">E</text><text font-family="Montserrat Light,Montserrat Light_MSFontService,sans-serif" font-weight="300" font-size="92" transform="matrix(1 0 0 1 2218.11 1655)"> </text><text font-family="Montserrat Light,Montserrat Light_MSFontService,sans-serif" font-weight="300" font-size="92" transform="matrix(1 0 0 1 2447.41 1655)">M</text><text font-family="Montserrat Light,Montserrat Light_MSFontService,sans-serif" font-weight="300" font-size="92" transform="matrix(1 0 0 1 2531.63 1655)"> </text><text font-family="Montserrat Light,Montserrat Light_MSFontService,sans-serif" font-weight="300" font-size="92" transform="matrix(1 0 0 1 2760.93 1655)">E</text><text font-family="Montserrat Light,Montserrat Light_MSFontService,sans-serif" font-weight="300" font-size="92" transform="matrix(1 0 0 1 2820.52 1655)"> </text><path d="M2563.41 1388.9C2557.37 1388.9 2552.21 1390.65 2547.93 1394.17 2543.65 1397.69 2540.38 1402.71 2538.13 1409.25 2535.88 1415.79 2534.76 1423.62 2534.76 1432.74 2534.76 1441.75 2535.88 1449.52 2538.13 1456.06 2540.38 1462.6 2543.65 1467.6 2547.93 1471.06 2552.21 1474.52 2557.37 1476.25 2563.41 1476.25 2569.44 1476.25 2574.66 1474.46 2579.05 1470.89 2583.44 1467.32 2586.81 1462.29 2589.17 1455.81 2591.53 1449.33 2592.71 1441.64 2592.71 1432.74 2592.71 1423.62 2591.53 1415.79 2589.17 1409.25 2586.81 1402.71 2583.44 1397.69 2579.05 1394.17 2574.66 1390.65 2569.44 1388.9 2563.41 1388.9ZM2133.4 1387.58C2127.59 1387.58 2122.59 1389.34 2118.42 1392.85 2114.25 1396.37 2111.07 1401.48 2108.87 1408.18 2106.68 1414.88 2105.58 1423.07 2105.58 1432.74 2105.58 1442.3 2106.68 1450.51 2108.87 1457.38 2111.07 1464.24 2114.25 1469.49 2118.42 1473.12 2122.59 1476.74 2127.59 1478.56 2133.4 1478.56 2139.11 1478.56 2144.02 1476.74 2148.14 1473.12 2152.26 1469.49 2155.41 1464.24 2157.61 1457.38 2159.8 1450.51 2160.9 1442.3 2160.9 1432.74 2160.9 1423.07 2159.8 1414.88 2157.61 1408.18 2155.41 1401.48 2152.26 1396.37 2148.14 1392.85 2144.02 1389.34 2139.11 1387.58 2133.4 1387.58ZM2750.11 1384.61C2743.75 1384.61 2738.43 1385.96 2734.14 1388.65 2729.86 1391.34 2726.63 1395.24 2724.43 1400.35 2723.33 1402.9 2722.51 1405.75 2721.96 1408.9L2721.74 1411.64 2778.49 1411.64 2778.27 1408.9C2777.72 1405.75 2776.9 1402.9 2775.8 1400.35 2773.6 1395.24 2770.37 1391.34 2766.09 1388.65 2761.8 1385.96 2756.48 1384.61 2750.11 1384.61ZM1850.92 1384.61C1844.56 1384.61 1839.23 1385.96 1834.95 1388.65 1830.67 1391.34 1827.43 1395.24 1825.24 1400.35 1824.14 1402.9 1823.32 1405.75 1822.77 1408.9L1822.55 1411.64 1879.3 1411.64 1879.08 1408.9C1878.53 1405.75 1877.71 1402.9 1876.61 1400.35 1874.41 1395.24 1871.18 1391.34 1866.9 1388.65 1862.61 1385.96 1857.29 1384.61 1850.92 1384.61ZM2402.93 1352.15 2356.51 1430.15 2402.93 1508.96ZM1639.52 1332.53 1639.52 1400.1 1662.9 1400.1C1670.8 1400.1 1677.55 1398.7 1683.15 1395.9 1688.75 1393.1 1693.03 1389.17 1695.99 1384.12 1698.96 1379.06 1700.44 1373.07 1700.44 1366.15 1700.44 1359.01 1698.96 1352.94 1695.99 1347.94 1693.03 1342.94 1688.75 1339.12 1683.15 1336.48 1677.55 1333.85 1670.8 1332.53 1662.9 1332.53ZM2591.07 1279.13 2657.25 1279.13 2657.25 1423.84 2659.13 1406.35C2661.03 1398.04 2663.9 1390.32 2667.71 1383.21 2675.34 1368.98 2686.12 1357.91 2700.06 1350 2714 1342.09 2730.47 1338.13 2749.46 1338.13 2763.4 1338.13 2775.99 1340.3 2787.24 1344.64 2798.49 1348.98 2808.13 1355.25 2816.14 1363.43 2824.15 1371.62 2830.3 1381.53 2834.58 1393.18 2838.86 1404.83 2841 1418.01 2841 1432.74L2841 1447.9 2721.34 1447.9 2722.1 1456.74C2722.75 1460.1 2723.72 1463.12 2725.01 1465.78 2727.59 1471.11 2731.24 1475.07 2735.96 1477.65 2740.68 1480.23 2746.16 1481.52 2752.42 1481.52 2756.92 1481.52 2761.01 1480.89 2764.69 1479.63 2768.36 1478.36 2771.52 1476.55 2774.15 1474.19 2776.79 1471.83 2778.76 1468.94 2780.08 1465.53L2838.37 1474.11C2835.29 1485.09 2829.86 1494.62 2822.07 1502.7 2814.27 1510.78 2804.42 1517.01 2792.51 1521.41 2780.6 1525.8 2766.8 1528 2751.1 1528 2731.45 1528 2714.52 1524.24 2700.31 1516.71 2686.09 1509.18 2675.2 1498.33 2667.63 1484.16 2663.84 1477.07 2661 1469.27 2659.11 1460.76L2657.25 1442.7 2657.25 1524.7 2591.72 1524.7 2591.72 1494.38 2590.08 1494.38C2587.55 1500.64 2583.93 1506.22 2579.21 1511.11 2574.49 1516 2568.78 1519.87 2562.09 1522.73 2555.39 1525.58 2547.71 1527.01 2539.04 1527.01 2525.98 1527.01 2513.93 1523.58 2502.9 1516.71 2491.87 1509.84 2483.06 1499.43 2476.47 1485.48 2474.83 1481.99 2473.38 1478.27 2472.15 1474.33L2469.12 1462.05 2469.12 1524.7 2412.2 1524.7 2402.93 1524.7 2343.38 1524.7 2328.56 1495.7C2323.52 1485.92 2318.77 1475.7 2314.32 1465.04L2312.16 1460.05 2310.12 1465.04C2305.84 1475.7 2301.29 1485.92 2296.46 1495.7L2282.13 1524.7 2214.3 1524.7 2269.29 1430.02 2217.59 1340.44 2286.91 1340.44 2298.27 1363.84C2302.99 1373.51 2307.43 1383.57 2311.61 1394L2313.53 1398.74 2315.56 1394.09C2319.95 1383.59 2324.67 1373.51 2329.72 1363.84L2341.9 1340.44 2402.93 1340.44 2409.9 1340.44 2469.12 1340.44 2469.12 1402.94 2469.19 1402.43C2470.91 1393.38 2473.51 1385.38 2476.97 1378.43 2483.88 1364.53 2492.83 1354.34 2503.8 1347.86 2514.78 1341.37 2526.31 1338.13 2538.38 1338.13 2547.49 1338.13 2555.48 1339.7 2562.34 1342.83 2569.2 1345.96 2574.96 1350.16 2579.62 1355.44 2584.29 1360.71 2587.77 1366.48 2590.08 1372.74L2591.07 1372.74ZM1573 1279.13 1678.7 1279.13C1696.92 1279.13 1712.87 1282.73 1726.53 1289.92 1740.2 1297.12 1750.85 1307.26 1758.48 1320.33 1766.1 1333.41 1769.92 1348.68 1769.92 1366.15L1767.59 1385.7 1768.52 1383.21C1776.15 1368.98 1786.93 1357.91 1800.87 1350 1814.81 1342.09 1831.28 1338.13 1850.27 1338.13 1864.21 1338.13 1876.8 1340.3 1888.05 1344.64 1899.3 1348.98 1908.93 1355.25 1916.95 1363.43 1924.96 1371.62 1931.11 1381.53 1935.39 1393.18L1939.28 1408.25 1939.28 1340.44 2003.5 1340.44 2003.5 1375.71 2005.47 1375.71C2008.77 1362.64 2014.06 1353.1 2021.36 1347.12 2028.66 1341.13 2037.2 1338.13 2046.96 1338.13 2049.82 1338.13 2052.67 1338.35 2055.53 1338.79 2058.38 1339.23 2061.12 1339.89 2063.76 1340.77L2063.76 1363.93 2082.03 1350.08C2096.3 1342.12 2113.43 1338.13 2133.4 1338.13 2153.38 1338.13 2170.45 1342.12 2184.61 1350.08 2198.77 1358.05 2209.61 1369.15 2217.13 1383.37 2224.65 1397.6 2228.4 1414.17 2228.4 1433.07 2228.4 1451.97 2224.65 1468.53 2217.13 1482.76 2209.61 1496.99 2198.77 1508.08 2184.61 1516.05 2170.45 1524.02 2153.38 1528 2133.4 1528 2113.43 1528 2096.3 1524.02 2082.03 1516.05 2067.76 1508.08 2056.87 1496.99 2049.35 1482.76 2041.83 1468.53 2038.07 1451.97 2038.07 1433.07 2038.07 1423.62 2039.01 1414.75 2040.89 1406.47L2045.39 1394.2 2039.39 1393.84C2032.91 1393.84 2027.1 1395.3 2021.94 1398.21 2016.78 1401.12 2012.74 1405.18 2009.84 1410.4 2006.93 1415.62 2005.47 1421.75 2005.47 1428.78L2005.47 1524.7 1939.28 1524.7 1939.28 1447.9 1822.15 1447.9 1822.91 1456.74C1823.56 1460.1 1824.53 1463.12 1825.82 1465.78 1828.39 1471.11 1832.04 1475.07 1836.76 1477.65 1841.48 1480.23 1846.97 1481.52 1853.23 1481.52 1857.73 1481.52 1861.82 1480.89 1865.5 1479.63 1869.17 1478.36 1872.33 1476.55 1874.96 1474.19 1877.6 1471.83 1879.57 1468.94 1880.89 1465.53L1939.17 1474.11C1936.1 1485.09 1930.67 1494.62 1922.87 1502.7 1915.08 1510.78 1905.23 1517.01 1893.32 1521.41 1881.41 1525.8 1867.61 1528 1851.91 1528 1832.26 1528 1815.33 1524.24 1801.12 1516.71 1786.9 1509.18 1776.01 1498.33 1768.44 1484.16 1760.86 1469.99 1757.08 1452.95 1757.08 1433.07L1759.75 1408.08 1758.23 1411.72C1750.43 1424.52 1739.51 1434.41 1725.46 1441.39 1711.41 1448.37 1695.06 1451.86 1676.4 1451.86L1639.52 1451.86 1639.52 1524.7 1573 1524.7ZM2435.86 1261C2444.75 1261 2452.41 1263.94 2458.83 1269.82 2465.25 1275.7 2468.46 1282.86 2468.46 1291.33 2468.46 1299.68 2465.25 1306.82 2458.83 1312.75 2452.41 1318.68 2444.75 1321.65 2435.86 1321.65 2426.86 1321.65 2419.17 1318.66 2412.81 1312.67 2406.44 1306.68 2403.26 1299.57 2403.26 1291.33 2403.26 1282.86 2406.44 1275.7 2412.81 1269.82 2419.17 1263.94 2426.86 1261 2435.86 1261Z" fill="#262626" fill-rule="evenodd"/><path d="M2142.82 900.532C2090.96 900.532 2048.91 942.578 2048.91 994.444 2048.91 1046.31 2090.96 1088.36 2142.82 1088.36 2194.69 1088.36 2236.74 1046.31 2236.74 994.444 2236.74 942.578 2194.69 900.532 2142.82 900.532ZM2199.99 778.213C2155.3 778.213 2113.79 791.799 2079.35 815.065L2072.04 820.528 2086.97 815.064C2104.61 809.576 2123.37 806.62 2142.82 806.62 2246.56 806.62 2330.65 890.711 2330.65 994.444 2330.65 1098.18 2246.56 1182.27 2142.82 1182.27 2123.37 1182.27 2104.61 1179.31 2086.97 1173.82L2074.41 1169.23 2079.35 1172.92C2113.79 1196.18 2155.3 1209.77 2199.99 1209.77 2229.78 1209.77 2258.17 1203.73 2283.98 1192.81L2301.21 1183.46 2297.39 1171.13C2296.49 1166.75 2296.02 1162.22 2296.02 1157.57 2296.02 1120.41 2326.15 1090.28 2363.31 1090.28 2367.96 1090.28 2372.49 1090.75 2376.87 1091.65L2389.3 1095.5 2398.81 1077.98C2409.73 1052.17 2415.77 1023.78 2415.77 993.991 2415.77 874.82 2319.16 778.213 2199.99 778.213ZM2201.62 749.005C2251.26 749.319 2301.06 764.67 2343.78 795.641 2441.43 866.433 2473.03 997.767 2418.27 1105.23L2412.31 1102.19C2465.58 997.664 2434.85 869.913 2339.86 801.052 2244.87 732.192 2113.9 742.711 2031.12 825.848 2010.43 846.632 1994.28 870.409 1982.79 895.863L1982.06 897.682 1987.08 889.43C1993.83 879.437 2001.51 870.13 2010.01 861.632L2021.72 850.995 2023.55 848.544C2065.49 797.727 2128.96 765.335 2199.99 765.335 2326.27 765.335 2428.65 867.708 2428.65 993.991 2428.65 1025.56 2422.25 1055.64 2410.68 1082.99L2400.59 1101.58 2400.94 1101.77C2418.83 1113.86 2430.6 1134.34 2430.6 1157.57 2430.6 1194.73 2400.48 1224.86 2363.31 1224.86 2340.08 1224.86 2319.61 1213.09 2307.51 1195.19L2307.28 1194.75 2288.99 1204.68C2261.64 1216.25 2231.56 1222.65 2199.99 1222.65 2136.85 1222.65 2079.68 1197.05 2038.31 1155.67L2023.8 1139.72 2023.35 1139.38C2009.44 1127.9 1997.2 1114.45 1987.08 1099.46L1983.94 1094.3 1985.38 1097.65C1991.58 1110.45 1999 1122.86 2007.66 1134.69 2076.93 1229.38 2204.81 1259.57 2309.11 1205.85L2312.17 1211.79C2204.94 1267.01 2073.48 1235.98 2002.26 1138.64 1971.11 1096.05 1955.54 1046.31 1955.01 996.678L1955.05 995.482 1955 994.444 1955.24 989.617 1955.71 975.432C1960 918.907 1983.83 863.867 2026.38 821.132 2068.93 778.398 2123.87 754.327 2180.38 749.789 2187.44 749.222 2194.53 748.96 2201.62 749.005Z" fill="url(#fill0)" fill-rule="evenodd"/></g></svg>